# xmcd
# Copyright (C) 1995-1998 Ti Kan
#
# Track frame offsets:
#       150
#       6470
#       45420
#       77557
#       98411
#       111701
#       132279
#       153422
#
# Disc length: 2228 seconds
#
# Revision: 0
# Processed by: cddbd v1.5.2PL0 Copyright (c) Steve Scherf et al.
# Submitted via: CD-Import v1.0
#
DISCID=5c08b208
DTITLE=Mae - (M)orning
DYEAR=2009
DGENRE=
TTITLE0=Good (M)orning
TTITLE1=The Fisherman Song (We All Need Love)
TTITLE2=The House That Fire Built
TTITLE3=Boomerang
TTITLE4=Two Birds
TTITLE5=A Melody, The Memory
TTITLE6=Night/Day
TTITLE7=(M)orning Drive
EXTD=
EXTT0=
EXTT1=
EXTT2=
EXTT3=
EXTT4=
EXTT5=
EXTT6=
EXTT7=
PLAYORDER=
